#!OML:ASF X:\für Bonn\!DataBase\2005_08_10_Bjorn_Final\c3d\bjorn.ASF
:FULLY-SPECIFIED
:DEGREES
46
root -22.1017 18.7818 -27.939 -354.358 361.298 -360.891
lowerback -4.14276 0.493296 -3.56778
upperback 9.78895 1.45995 -3.63694
thorax 12.977 0.584613 -1.76102
lowerneck -1.3598 1.86209 -0.678516
upperneck 6.27029 2.5142 -0.110153
head 2.18588 1.23077 0.137964
rclavicle 0 4.45278e-014
rhumerus -31.5586 -10.4036 -94.4747
rradius 27.0354
rwrist 2.87646
rhand -13.0789 14.1292
rfingers 7.12502
rthumb 13.0172 -15.4446
lclavicle 0 4.45278e-014
lhumerus -22.5109 -15.5498 89.5506
lradius 50.7624
lwrist -9.94811
lhand -26.9582 -15.6217
lfingers 7.12502
lthumb -0.379712 14.3577
rfemur -23.3483 -5.01139 17.1531
rtibia 56.7896
rfoot -19.9376 15.6001
rtoes -10.1001
lfemur -5.69004 8.93115 -21.2911
ltibia 31.3013
lfoot -26.5497 -6.87203
ltoes -10.3581
47
root -22.0869 18.7601 -27.8744 -354.405 361.122 -360.733
lowerback -3.82846 0.473024 -3.68054
upperback 9.87566 1.43965 -3.74504
thorax 12.8854 0.571349 -1.8222
lowerneck -1.34431 1.8788 -0.628875
upperneck 5.8611 2.53028 -0.0669685
head 2.04909 1.24271 0.140141
rclavicle -7.95139e-015 1.74931e-014
rhumerus -31.9005 -10.2602 -94.5504
rradius 27.1628
rwrist 2.63283
rhand -13.2648 14.3651
rfingers 7.12502
rthumb 12.8379 -15.2201
lclavicle -7.95139e-015 1.74931e-014
lhumerus -22.2075 -15.7369 89.5146
lradius 52.3038
lwrist -9.41493
lhand -27.3862 -15.5106
lfingers 7.12502
lthumb -0.793057 14.4677
rfemur -24.161 -5.13177 16.876
rtibia 57.7687
rfoot -20.2339 15.4892
rtoes -11.3153
lfemur -5.35095 8.9427 -21.5252
ltibia 31.2285
lfoot -26.7893 -6.58763
ltoes -10.8414
48
root -22.0727 18.738 -27.8094 -354.476 360.926 -360.581
lowerback -3.46367 0.460602 -3.81102
upperback 9.95492 1.42387 -3.82727
thorax 12.7524 0.556973 -1.84392
lowerneck -1.2812 1.89612 -0.637397
upperneck 5.41627 2.54916 -0.0257024
head 1.89237 1.25475 0.1506
rclavicle 9.54166e-015 3.97569e-014
rhumerus -32.3029 -10.0094 -94.6037
rradius 27.3182
rwrist 2.31286
rhand -13.4614 14.6433
rfingers 7.12502
rthumb 12.6484 -14.9537
lclavicle 9.54166e-015 3.97569e-014
lhumerus -21.9264 -15.8711 89.5357
lradius 53.9144
lwrist -9.07142
lhand -27.9134 -15.3791
lfingers 7.12502
lthumb -1.30223 14.5967
rfemur -24.9582 -5.20612 16.6115
rtibia 58.6972
rfoot -20.5552 15.2726
rtoes -12.577
lfemur -4.99301 8.97504 -21.7503
ltibia 31.1742
lfoot -27.0169 -6.2695
ltoes -11.3589
49
root -22.057 18.7134 -27.7429 -354.569 360.719 -360.413
lowerback -3.09626 0.458849 -3.91751
upperback 10.0626 1.42403 -3.94182
thorax 12.6535 0.554557 -1.91294
lowerneck -1.25821 1.91418 -0.572114
upperneck 4.94602 2.568 0.00649733
head 1.73671 1.26788 0.146039
rclavicle 6.36111e-015 -3.49861e-014
rhumerus -32.6444 -9.8393 -94.689
rradius 27.4167
rwrist 2.02278
rhand -13.6515 14.9743
rfingers 7.12502
rthumb 12.4652 -14.634
lclavicle 6.36111e-015 -3.49861e-014
lhumerus -21.6034 -16.0312 89.4856
lradius 55.601
lwrist -8.71772
lhand -28.5094 -15.5001
lfingers 7.12502
lthumb -1.87789 14.4714
rfemur -25.739 -5.27901 16.3138
rtibia 59.5604
rfoot -20.8424 15.1179
rtoes -13.6661
lfemur -4.61179 8.9528 -22.0046
ltibia 31.1399
lfoot -27.2626 -5.93421
ltoes -11.7736
50
root -22.0414 18.6869 -27.6756 -354.687 360.512 -360.262
lowerback -2.7101 0.463326 -4.02378
upperback 10.1983 1.42906 -4.0298
thorax 12.5753 0.552541 -1.95315
lowerneck -1.25401 1.92512 -0.55942
upperneck 4.43441 2.57798 0.075252
head 1.57103 1.27622 0.161245
rclavicle -1.27222e-014 -3.33958e-014
rhumerus -32.9574 -9.61157 -94.767
rradius 27.5016
rwrist 1.74321
rhand -13.8896 15.3581
rfingers 7.12502
rthumb 12.2356 -14.264
lclavicle -1.27222e-014 -3.33958e-014
lhumerus -21.215 -16.1202 89.4531
lradius 57.3216
lwrist -8.44168
lhand -29.162 -15.9646
lfingers 7.12502
lthumb -2.50821 14.0004
rfemur -26.5064 -5.36186 16.0408
rtibia 60.3589
rfoot -21.0866 14.9552
rtoes -14.6738
lfemur -4.20788 8.87687 -22.2426
ltibia 31.1225
lfoot -27.4679 -5.59523
ltoes -11.8162
51
root -22.0259 18.6582 -27.608 -354.813 360.287 -360.132
lowerback -2.29965 0.483125 -4.09336
upperback 10.3486 1.45052 -4.12635
thorax 12.5005 0.562609 -2.02154
lowerneck -1.31238 1.94119 -0.553846
upperneck 3.96766 2.59442 0.194366
head 1.43085 1.28814 0.19423
rclavicle 2.22639e-014 4.77083e-015
rhumerus -33.2708 -9.39662 -94.8691
rradius 27.6152
rwrist 1.41762
rhand -14.0607 15.6648
rfingers 7.12502
rthumb 12.0706 -13.9671
lclavicle 2.22639e-014 4.77083e-015
lhumerus -20.7682 -16.2452 89.3735
lradius 59.0927
lwrist -8.22214
lhand -29.8449 -16.4534
lfingers 7.12502
lthumb -3.16771 13.5029
rfemur -27.2607 -5.37754 15.793
rtibia 61.0818
rfoot -21.3206 14.7459
rtoes -15.6934
lfemur -3.805 8.78983 -22.4601
ltibia 31.1189
lfoot -27.6487 -5.20725
ltoes -11.8573
52
root -22.0102 18.6289 -27.5368 -354.934 360.052 -360.036
lowerback -1.92348 0.500794 -4.12826
upperback 10.5086 1.4674 -4.21233
thorax 12.459 0.57295 -2.09888
lowerneck -1.45072 1.97694 -0.627675
upperneck 3.58731 2.63691 0.424634
head 1.33004 1.31331 0.276487
rclavicle -6.36111e-015 4.77083e-015
rhumerus -33.6298 -9.07046 -95.0021
rradius 27.7999
rwrist 1.03647
rhand -14.3084 16.0235
rfingers 7.12502
rthumb 11.8317 -13.6222
lclavicle -6.36111e-015 4.77083e-015
lhumerus -20.297 -16.3321 89.2993
lradius 60.9517
lwrist -7.92291
lhand -30.411 -16.9058
lfingers 7.12502
lthumb -3.71435 13.0416
rfemur -28.0172 -5.33586 15.5679
rtibia 61.7394
rfoot -21.4305 14.6347
rtoes -16.1156
lfemur -3.39556 8.69136 -22.6508
ltibia 31.1227
lfoot -27.8148 -4.80325
ltoes -11.7959
53
root -21.9936 18.6005 -27.465 -355.097 359.819 -359.962
lowerback -1.49206 0.522103 -4.13647
upperback 10.6942 1.48361 -4.29432
thorax 12.414 0.58543 -2.18776
lowerneck -1.60523 2.022 -0.656472
upperneck 3.18474 2.69367 0.611337
head 1.22642 1.34529 0.337797
rclavicle -1.11319e-014 -2.8625e-014
rhumerus -33.9897 -8.44884 -95.2648
rradius 28.0889
rwrist 0.376263
rhand -14.5887 16.2523
rfingers 7.12502
rthumb 11.5614 -13.4088
lclavicle -1.11319e-014 -2.8625e-014
lhumerus -19.7292 -16.4963 89.1835
lradius 62.7976
lwrist -7.60169
lhand -30.9639 -17.1873
lfingers 7.12502
lthumb -4.24827 12.7501
rfemur -28.7277 -5.28073 15.3674
rtibia 62.3322
rfoot -21.5493 14.5267
rtoes -16.5703
lfemur -2.94124 8.56405 -22.8089
ltibia 31.1306
lfoot -27.9765 -4.47271
ltoes -11.5268
54
root -21.9778 18.5702 -27.3908 -355.228 359.553 -359.865
lowerback -1.09992 0.565113 -4.18523
upperback 10.8773 1.53481 -4.37685
thorax 12.391 0.610624 -2.25088
lowerneck -1.69646 2.04095 -0.670998
upperneck 2.6708 2.71772 0.760765
head 1.07831 1.36031 0.382605
rclavicle 1.03368e-014 1.59028e-014
rhumerus -34.31 -7.73899 -95.5636
rradius 28.2565
rwrist -0.231387
rhand -15.0049 16.4756
rfingers 7.12502
rthumb 11.1601 -13.2076
lclavicle 1.03368e-014 1.59028e-014
lhumerus -19.0894 -16.6767 89.0793
lradius 64.5809
lwrist -7.38234
lhand -31.5246 -17.5265
lfingers 7.12502
lthumb -4.78972 12.3993
rfemur -29.4829 -5.17891 15.1373
rtibia 62.8828
rfoot -21.5895 14.4097
rtoes -16.9413
lfemur -2.50413 8.43581 -23.005
ltibia 31.1237
lfoot -28.1409 -4.12432
ltoes -11.2992
55
root -21.9598 18.5377 -27.3143 -355.378 359.289 -359.768
lowerback -0.697639 0.596504 -4.20717
upperback 11.0663 1.56777 -4.46442
thorax 12.3696 0.630105 -2.33724
lowerneck -1.76365 2.07399 -0.720089
upperneck 2.15625 2.7617 0.955409
head 0.925617 1.38508 0.446615
rclavicle 1.66979e-014 -1.27222e-014
rhumerus -34.6014 -6.94556 -95.9101
rradius 28.3624
rwrist -0.962817
rhand -15.4047 16.6525
rfingers 7.12502
rthumb 10.7744 -13.0512
lclavicle 1.66979e-014 -1.27222e-014
lhumerus -18.4264 -16.8557 88.9578
lradius 66.368
lwrist -7.12793
lhand -32.1602 -17.964
lfingers 7.12502
lthumb -5.40344 11.9471
rfemur -30.2097 -5.10129 14.8974
rtibia 63.3861
rfoot -21.5982 14.3918
rtoes -17.1499
lfemur -2.02734 8.32843 -23.1964
ltibia 31.0988
lfoot -28.3012 -3.86475
ltoes -11.0618
56
root -21.9409 18.5035 -27.2352 -355.555 358.982 -359.626
lowerback -0.271583 0.642296 -4.27419
upperback 11.2664 1.62303 -4.56643
thorax 12.3479 0.65679 -2.41283
lowerneck -1.81498 2.09629 -0.748143
upperneck 1.60298 2.79347 1.1158
head 0.759936 1.40301 0.49562
rclavicle -1.74931e-014 -1.11319e-014
rhumerus -34.9274 -6.11372 -96.264
rradius 28.5214
rwrist -1.74072
rhand -15.8351 16.8837
rfingers 7.12502
rthumb 10.3593 -12.8412
lclavicle -1.74931e-014 -1.11319e-014
lhumerus -17.7085 -17.047 88.8142
lradius 68.164
lwrist -6.88188
lhand -32.743 -18.4119
lfingers 7.12502
lthumb -5.96612 11.4841
rfemur -30.9089 -4.96734 14.6003
rtibia 63.8513
rfoot -21.5669 14.3676
rtoes -17.3628
lfemur -1.49957 8.18122 -23.4526
ltibia 31.0463
lfoot -28.4724 -3.60803
ltoes -10.6667
57
root -21.9221 18.4684 -27.1532 -355.701 358.677 -359.478
lowerback 0.132759 0.68267 -4.37549
upperback 11.4394 1.67027 -4.64968
thorax 12.3065 0.674894 -2.44929
lowerneck -1.91926 2.13129 -0.803588
upperneck 1.17754 2.84333 1.2932
head 0.642671 1.42974 0.556534
rclavicle -5.56597e-015 2.54444e-014
rhumerus -35.3155 -5.28533 -96.5681
rradius 28.7367
rwrist -2.69211
rhand -16.0983 17.2027
rfingers 7.12502
rthumb 10.1053 -12.5346
lclavicle -5.56597e-015 2.54444e-014
lhumerus -16.9849 -17.243 88.6972
lradius 70.0089
lwrist -6.58878
lhand -33.2563 -18.6498
lfingers 7.12502
lthumb -6.46162 11.2316
rfemur -31.653 -4.85543 14.3071
rtibia 64.2757
rfoot -21.4845 14.3593
rtoes -17.384
lfemur -0.990725 8.09369 -23.707
ltibia 30.9788
lfoot -28.6261 -3.37298
ltoes -10.5896
58
root -21.9036 18.4319 -27.0683 -355.863 358.349 -359.337
lowerback 0.557117 0.731208 -4.47686
upperback 11.6025 1.72502 -4.7337
thorax 12.2419 0.696811 -2.48604
lowerneck -2.07949 2.1721 -0.829759
upperneck 0.826972 2.9012 1.45378
head 0.558534 1.46046 0.609173
rclavicle -2.94201e-014 -3.18055e-015
rhumerus -35.79 -4.4143 -96.8894
rradius 29.0329
rwrist -3.8197
rhand -16.3057 17.5111
rfingers 7.12502
rthumb 9.90527 -12.2359
lclavicle -2.94201e-014 -3.18055e-015
lhumerus -16.3071 -17.4775 88.5521
lradius 72.0122
lwrist -6.26228
lhand -33.6173 -18.5759
lfingers 7.12502
lthumb -6.81015 11.2946
rfemur -32.3767 -4.71846 14.0189
rtibia 64.6605
rfoot -21.346 14.3681
rtoes -17.2664
lfemur -0.4446 8.03445 -23.9509
ltibia 30.8827
lfoot -28.7579 -3.14466
ltoes -10.6311
59
root -21.8873 18.395 -26.981 -356.025 358.078 -359.211
lowerback 0.988456 0.760962 -4.58712
upperback 11.7661 1.75126 -4.79628
thorax 12.1724 0.702583 -2.49768
lowerneck -2.30576 2.22347 -0.857295
upperneck 0.510487 2.97423 1.60643
head 0.495769 1.49885 0.661189
rclavicle 6.36111e-015 1.27222e-014
rhumerus -36.3526 -3.45993 -97.228
rradius 29.428
rwrist -5.0872
rhand -16.373 17.7953
rfingers 7.12502
rthumb 9.84035 -11.9548
lclavicle 6.36111e-015 1.27222e-014
lhumerus -15.6634 -17.7154 88.428
lradius 74.1214
lwrist -5.92388
lhand -33.9136 -18.286
lfingers 7.12502
lthumb -7.09618 11.575
rfemur -33.0991 -4.63097 13.7677
rtibia 65.0034
rfoot -21.349 14.3379
rtoes -17.5418
lfemur 0.107738 7.95328 -24.1575
ltibia 30.7769
lfoot -28.8511 -3.00733
ltoes -10.4884
